<svg viewBox="0 0 32 32" fill="none" xmlns="http://www.w3.org/2000/svg" stroke="#ffffff"><g id="SVGRepo_bgCarrier" strokeWidth="0"></g><g id="SVGRepo_tracerCarrier" strokeLinecap="round" stroke-linejoin="round"></g><g id="SVGRepo_iconCarrier"> <g clip-path="url(#clip0_901_2553)"> <path d="M29 9H30C31 9 31 10 31 10V30C31 30.553 30.553 31 30 31H2.019C1.466 31 1 30.553 1 30V10C1 10 1 9 2 9H3M6 16V2C6 1.447 6.447 1 7 1H25C25.553 1 26 1.447 26 2V16M11 8H16M11 12H21M4 19H12V21C12 21.553 12.447 22 13 22H20C20.553 22 21 21.553 21 21V19H28" stroke="#ffffff" strokeWidth="2" strokeLinecap="round" stroke-linejoin="round"></path> </g> <defs> <clipPath id="clip0_901_2553"> <rect width="32" height="32" fill="white"></rect> </clipPath> </defs> </g></svg>